<?xml version="1.0" standalone="no"?><svg xmlns="http://www.w3.org/2000/svg" viewBox="0 0 1440 320"><path fill="#fff" fill-opacity="1" d="M0,128L12.6,144C25.3,160,51,192,76,208C101.1,224,126,224,152,224C176.8,224,202,224,227,202.7C252.6,181,278,139,303,128C328.4,117,354,139,379,170.7C404.2,203,429,245,455,261.3C480,277,505,267,531,256C555.8,245,581,235,606,197.3C631.6,160,657,96,682,64C707.4,32,733,32,758,74.7C783.2,117,808,203,834,197.3C858.9,192,884,96,909,64C934.7,32,960,64,985,101.3C1010.5,139,1036,181,1061,213.3C1086.3,245,1112,267,1137,234.7C1162.1,203,1187,117,1213,106.7C1237.9,96,1263,160,1288,208C1313.7,256,1339,288,1364,256C1389.5,224,1415,128,1427,80L1440,32L1440,320L1427.4,320C1414.7,320,1389,320,1364,320C1338.9,320,1314,320,1288,320C1263.2,320,1238,320,1213,320C1187.4,320,1162,320,1137,320C1111.6,320,1086,320,1061,320C1035.8,320,1011,320,985,320C960,320,935,320,909,320C884.2,320,859,320,834,320C808.4,320,783,320,758,320C732.6,320,707,320,682,320C656.8,320,632,320,606,320C581.1,320,556,320,531,320C505.3,320,480,320,455,320C429.5,320,404,320,379,320C353.7,320,328,320,303,320C277.9,320,253,320,227,320C202.1,320,177,320,152,320C126.3,320,101,320,76,320C50.5,320,25,320,13,320L0,320Z"></path></svg>